<svg data-v-423bf9ae="" xmlns="http://www.w3.org/2000/svg" viewBox="0 0 236.98446081878964 60" class="font"><!----><!----><!----><g data-v-423bf9ae="" id="9a84f17b-0de2-4afa-9e81-9c5774e98f8d" fill="white" transform="matrix(4.434589575388691,0,0,4.434589575388691,-2.1729458288410513,-15.565408652067028)"><path d="M5.52 13.71L5.52 13.71Q4.03 13.71 2.89 13.08L2.89 13.08L2.89 13.08Q1.75 12.45 1.12 11.29L1.12 11.29L1.12 11.29Q0.49 10.14 0.49 8.61L0.49 8.61L0.49 8.61Q0.49 7.10 1.14 5.94L1.14 5.94L1.14 5.94Q1.79 4.79 2.95 4.15L2.95 4.15L2.95 4.15Q4.10 3.51 5.57 3.51L5.57 3.51L5.57 3.51Q6.99 3.51 8.11 4.09L8.11 4.09L7.91 5.80L7.91 5.80Q7.31 5.53 6.75 5.38L6.75 5.38L6.75 5.38Q6.20 5.24 5.56 5.24L5.56 5.24L5.56 5.24Q4.06 5.24 3.25 6.16L3.25 6.16L3.25 6.16Q2.45 7.08 2.45 8.61L2.45 8.61L2.45 8.61Q2.45 10.14 3.24 11.06L3.24 11.06L3.24 11.06Q4.03 11.98 5.52 11.98L5.52 11.98L5.52 11.98Q6.17 11.98 6.73 11.84L6.73 11.84L6.73 11.84Q7.28 11.70 7.91 11.42L7.91 11.42L8.11 13.13L8.11 13.13Q6.89 13.71 5.52 13.71L5.52 13.71ZM12.52 13.65L12.52 13.65Q11.41 13.65 10.60 13.16L10.60 13.16L10.60 13.16Q9.79 12.67 9.35 11.84L9.35 11.84L9.35 11.84Q8.92 11.02 8.92 10.02L8.92 10.02L8.92 10.02Q8.92 9.03 9.35 8.19L9.35 8.19L9.35 8.19Q9.79 7.35 10.60 6.86L10.60 6.86L10.60 6.86Q11.41 6.37 12.52 6.37L12.52 6.37L12.52 6.37Q13.62 6.37 14.43 6.86L14.43 6.86L14.43 6.86Q15.25 7.35 15.68 8.19L15.68 8.19L15.68 8.19Q16.11 9.03 16.11 10.02L16.11 10.02L16.11 10.02Q16.11 11.02 15.68 11.84L15.68 11.84L15.68 11.84Q15.25 12.67 14.43 13.16L14.43 13.16L14.43 13.16Q13.62 13.65 12.52 13.65L12.52 13.65ZM12.52 12.22L12.52 12.22Q13.37 12.22 13.85 11.62L13.85 11.62L13.85 11.62Q14.34 11.02 14.34 10.02L14.34 10.02L14.34 10.02Q14.34 9.02 13.85 8.41L13.85 8.41L13.85 8.41Q13.37 7.80 12.52 7.80L12.52 7.80L12.52 7.80Q11.66 7.80 11.18 8.41L11.18 8.41L11.18 8.41Q10.70 9.02 10.70 10.02L10.70 10.02L10.70 10.02Q10.70 11.02 11.18 11.62L11.18 11.62L11.18 11.62Q11.66 12.22 12.52 12.22L12.52 12.22ZM17.32 5.45L17.32 3.71L19.05 3.71L19.05 5.45L17.32 5.45ZM17.32 13.51L17.32 6.51L19.05 6.51L19.05 13.51L17.32 13.51ZM24.21 6.40L24.21 6.40Q25.51 6.40 26.18 7.27L26.18 7.27L26.18 7.27Q26.85 8.13 26.85 9.60L26.85 9.60L26.85 13.51L25.12 13.51L25.12 9.74L25.12 9.74Q25.12 8.76 24.79 8.29L24.79 8.29L24.79 8.29Q24.46 7.83 23.73 7.83L23.73 7.83L23.73 7.83Q22.93 7.83 22.41 8.43L22.41 8.43L22.41 13.51L20.68 13.51L20.68 6.51L22.30 6.51L22.33 7L22.33 7Q23.21 6.40 24.21 6.40L24.21 6.40ZM31.78 13.65L31.78 13.65Q30.56 13.65 29.70 13.15L29.70 13.15L29.70 13.15Q28.84 12.66 28.41 11.82L28.41 11.82L28.41 11.82Q27.99 10.99 27.99 9.97L27.99 9.97L27.99 9.97Q27.99 8.99 28.39 8.18L28.39 8.18L28.39 8.18Q28.80 7.36 29.57 6.88L29.57 6.88L29.57 6.88Q30.34 6.40 31.40 6.40L31.40 6.40L31.40 6.40Q32.38 6.40 33.06 6.80L33.06 6.80L33.06 6.80Q33.74 7.21 34.08 7.90L34.08 7.90L34.08 7.90Q34.43 8.58 34.43 9.44L34.43 9.44L34.43 9.44Q34.43 9.86 34.31 10.39L34.31 10.39L29.79 10.39L29.79 10.39Q29.93 11.31 30.52 11.77L30.52 11.77L30.52 11.77Q31.11 12.22 31.93 12.22L31.93 12.22L31.93 12.22Q33.07 12.22 34.03 11.65L34.03 11.65L34.12 13.12L34.12 13.12Q33.67 13.36 33.08 13.50L33.08 13.50L33.08 13.50Q32.48 13.65 31.78 13.65L31.78 13.65ZM29.83 9.21L32.66 9.21L32.66 9.21Q32.66 8.67 32.35 8.25L32.35 8.25L32.35 8.25Q32.05 7.83 31.40 7.83L31.40 7.83L31.40 7.83Q30.76 7.83 30.37 8.20L30.37 8.20L30.37 8.20Q29.97 8.58 29.83 9.21L29.83 9.21ZM35.62 13.51L35.62 6.51L37.24 6.51L37.28 7.25L37.28 7.25Q37.59 6.90 38.07 6.64L38.07 6.64L38.07 6.64Q38.56 6.37 39.09 6.37L39.09 6.37L39.09 6.37Q39.26 6.37 39.40 6.40L39.40 6.40L39.27 8.11L39.27 8.11Q39.00 8.04 38.67 8.04L38.67 8.04L38.67 8.04Q38.23 8.04 37.87 8.24L37.87 8.24L37.87 8.24Q37.51 8.44 37.35 8.74L37.35 8.74L37.35 13.51L35.62 13.51ZM43.01 17.04L43.01 17.04Q41.52 17.04 40.64 16.50L40.64 16.50L40.64 16.50Q39.76 15.96 39.76 15.04L39.76 15.04L39.76 15.04Q39.76 14.03 40.89 13.38L40.89 13.38L40.89 13.38Q40.28 13.01 40.28 12.39L40.28 12.39L40.28 12.39Q40.28 12.07 40.47 11.82L40.47 11.82L40.47 11.82Q40.66 11.56 40.98 11.41L40.98 11.41L40.98 11.41Q40.45 11.03 40.17 10.44L40.17 10.44L40.17 10.44Q39.90 9.86 39.90 9.16L39.90 9.16L39.90 9.16Q39.90 8.39 40.24 7.75L40.24 7.75L40.24 7.75Q40.57 7.11 41.22 6.74L41.22 6.74L41.22 6.74Q41.86 6.37 42.74 6.37L42.74 6.37L42.74 6.37Q43.67 6.37 44.34 6.82L44.34 6.82L44.34 6.82Q44.58 6.69 44.98 6.60L44.98 6.60L44.98 6.60Q45.37 6.51 45.84 6.51L45.84 6.51L46.28 6.51L46.17 7.60L45.54 7.60L45.54 7.60Q45.30 7.60 45.15 7.62L45.15 7.62L45.15 7.62Q45.57 8.26 45.57 9.16L45.57 9.16L45.57 9.16Q45.57 9.93 45.24 10.56L45.24 10.56L45.24 10.56Q44.91 11.20 44.27 11.57L44.27 11.57L44.27 11.57Q43.62 11.94 42.74 11.94L42.74 11.94L42.74 11.94Q42.42 11.94 42 11.84L42 11.84L42 11.84Q41.85 11.91 41.85 12.07L41.85 12.07L41.85 12.07Q41.85 12.25 42.06 12.36L42.06 12.36L42.06 12.36Q42.28 12.46 42.80 12.53L42.80 12.53L44.00 12.68L44.00 12.68Q46.41 13.01 46.41 14.71L46.41 14.71L46.41 14.71Q46.41 15.78 45.51 16.41L45.51 16.41L45.51 16.41Q44.60 17.04 43.01 17.04L43.01 17.04ZM42.74 10.65L42.74 10.65Q43.34 10.65 43.67 10.25L43.67 10.25L43.67 10.25Q44.00 9.86 44.00 9.16L44.00 9.16L44.00 9.16Q44.00 8.46 43.67 8.06L43.67 8.06L43.67 8.06Q43.34 7.66 42.74 7.66L42.74 7.66L42.74 7.66Q42.13 7.66 41.80 8.06L41.80 8.06L41.80 8.06Q41.47 8.46 41.47 9.16L41.47 9.16L41.47 9.16Q41.47 9.86 41.80 10.25L41.80 10.25L41.80 10.25Q42.13 10.65 42.74 10.65L42.74 10.65ZM43.08 15.72L43.08 15.72Q44.87 15.72 44.87 14.84L44.87 14.84L44.87 14.84Q44.87 14.45 44.56 14.26L44.56 14.26L44.56 14.26Q44.25 14.07 43.54 13.96L43.54 13.96L42 13.73L42 13.73Q41.20 14.06 41.20 14.71L41.20 14.71L41.20 14.71Q41.20 15.22 41.69 15.47L41.69 15.47L41.69 15.47Q42.18 15.72 43.08 15.72L43.08 15.72ZM47.81 16.90L49.36 13.05L46.45 6.51L48.38 6.51L50.18 11.02L52.00 6.51L53.93 6.51L49.55 16.90L47.81 16.90Z"></path></g><!----><!----></svg>